<svg id="Camada_1" data-name="Camada 1" xmlns="http://www.w3.org/2000/svg" viewBox="0 0 10.24 10.89"><defs><style>.cls-1{fill:#fff;}</style></defs><title>Total Vita App Layout</title><path class="cls-1" d="M4.86,0h.56a1.08,1.08,0,0,1,.72.89.35.35,0,0,0,.28.34A3.75,3.75,0,0,1,8.88,4.77V6.89a1.37,1.37,0,0,0,1,1.38l.17.07a.36.36,0,0,1,.16.39A.33.33,0,0,1,10,9,1,1,0,0,1,9.7,9H.43A.38.38,0,0,1,0,8.71a.39.39,0,0,1,.3-.43A1.37,1.37,0,0,0,1.36,6.81V4.7a3.28,3.28,0,0,1,.16-1A3.78,3.78,0,0,1,3.84,1.22c.11,0,.24-.06.24-.22A1,1,0,0,1,4.86,0Z"/><path class="cls-1" d="M4.82,10.89A1.25,1.25,0,0,1,4,10c-.08-.28-.05-.33.24-.33h1.9c.23,0,.27.05.22.27a1.27,1.27,0,0,1-.89.94Z"/></svg>