<svg id="Camada_1" data-name="Camada 1" xmlns="http://www.w3.org/2000/svg" viewBox="0 0 16.29 15.99"><defs><style>.cls-1{fill:#61abeb;}</style></defs><title>Total Vita App Layout</title><path class="cls-1" d="M16.29,3c-.35.18-.52-.12-.69-.32s-.47-.33-.78,0c-.74.8-1.54,1.54-2.3,2.33-.25.25-.43.26-.69,0-.85-.83-.87-.83-.06-1.67.64-.66,1.29-1.32,2-2,.23-.22.21-.34,0-.55s-.61-.36-.43-.8h.3l2.68,2.68ZM14.81,2a.83.83,0,0,0-.35-.44c-.17-.13-.27.05-.37.15-.72.72-1.44,1.45-2.17,2.16-.19.19-.23.32,0,.53s.35.19.55,0c.71-.72,1.43-1.42,2.14-2.14Z"/><path class="cls-1" d="M0,15.9l2.8-2.77L3,12.9c.11-.1.22-.24.38-.07s0,.25-.07.35L3,13.5.58,16C.39,15.93.17,16.08,0,15.9Z"/><path class="cls-1" d="M12.65,6.72a.85.85,0,0,0-.42.31L7.14,12.11c-.57.57-.68.57-1.25,0L4.07,10.3c-.42-.43-.43-.61,0-1L9.15,4.18c.53-.54.58-.41,0-1C9,3,8.85,2.88,8.72,2.73a.23.23,0,0,1,0-.35c.12-.12.24,0,.35,0s.24.23.35.35L13.63,7l.27.29a.22.22,0,1,1-.32.31c-.25-.22-.48-.46-.72-.69Zm-.45-.47L12,6,10.66,4.68C10,4,10,4,9.34,4.67c-.24.24-.57.45-.64.73s.35.43.53.66.19.26,0,.39-.28,0-.39-.08S8.59,6.09,8.44,6s-.17-.18-.29-.06,0,.21,0,.3l.42.41c.11.12.21.26.08.4s-.3.06-.43-.06L7.92,6.6c-.1-.08-.19-.25-.33-.13s0,.26.1.36C8.27,7.41,8.87,8,9.45,8.59c.18.18.32.23.53,0,.68-.7,1.37-1.38,2.06-2.07A.36.36,0,0,0,12.2,6.25Z"/><path class="cls-1" d="M4.87,12.26a1.25,1.25,0,0,1-.83.68.85.85,0,0,1-.71-.7c0-.22.52-.83.7-.83A2.15,2.15,0,0,1,4.87,12.26Z"/><path class="cls-1" d="M4,10.42a.7.7,0,0,1,.17.14c.53.52,1.06,1,1.58,1.57.08.09.23.18.1.33a.28.28,0,0,1-.37,0,8.21,8.21,0,0,1-1.66-1.67C3.67,10.62,3.79,10.39,4,10.42Z"/></svg>