<svg id="Camada_1" data-name="Camada 1" xmlns="http://www.w3.org/2000/svg" viewBox="0 0 29.11 34.74"><defs><style>.cls-1{fill:#e2574c;}.cls-2{fill:#b53629;}.cls-3{font-size:8.19px;fill:#fff;font-family:MyriadPro-Regular, Myriad Pro;}</style></defs><title>Total Vita App Layout</title><path class="cls-1" d="M26.19,3.93c-.67-.76-1.45-1.4-2.14-2.13A4.12,4.12,0,0,1,22.75,0H2A2,2,0,0,0,0,2v30.8a2,2,0,0,0,2,2H27.1a2,2,0,0,0,2-2V6.91C27.85,6.33,27,4.88,26.19,3.93Z"/><path class="cls-2" d="M22.66,5.25a1.21,1.21,0,0,0,1.1,1.22L29.11,7,22.74,0Z"/><text class="cls-3" transform="translate(7.66 19.78)">PDF</text></svg>