<svg id="Camada_1" data-name="Camada 1" xmlns="http://www.w3.org/2000/svg" viewBox="0 0 12.06 12.82"><defs><style>.cls-1{fill:#919191;}</style></defs><title>Total Vita App Layout</title><path class="cls-1" d="M5.73,0h.65a1.28,1.28,0,0,1,.85,1.05.42.42,0,0,0,.33.4,4.4,4.4,0,0,1,2.89,4.16c0,.84,0,1.67,0,2.51a1.59,1.59,0,0,0,1.19,1.62.78.78,0,0,1,.21.09.44.44,0,0,1-.14.79,1.51,1.51,0,0,1-.3,0H.51A.45.45,0,0,1,0,10.26a.46.46,0,0,1,.36-.51A1.62,1.62,0,0,0,1.6,8c0-.82,0-1.65,0-2.47A4,4,0,0,1,1.79,4.3,4.4,4.4,0,0,1,4.52,1.44c.13-.05.28-.07.29-.26A1.22,1.22,0,0,1,5.73,0Z"/><path class="cls-1" d="M5.68,12.82a1.48,1.48,0,0,1-1-1c-.09-.34-.06-.39.28-.39H7.18c.26,0,.31.06.25.32a1.5,1.5,0,0,1-1,1.1Z"/></svg>