<svg id="Camada_1" data-name="Camada 1" xmlns="http://www.w3.org/2000/svg" viewBox="0 0 21.2 21.19"><defs><style>.cls-1,.cls-2{fill:#fff;}.cls-2{stroke:#fff;stroke-miterlimit:10;}</style></defs><title>Total Vita App Layout</title><path class="cls-1" d="M0,10.59C0,7.88,0,5.17,0,2.46A2.48,2.48,0,0,1,1.73.11,2.26,2.26,0,0,1,2.42,0H18.77a2.45,2.45,0,0,1,2.39,2,2.33,2.33,0,0,1,0,.38V15.74a.17.17,0,0,1-.07.15L15.9,21.13a.2.2,0,0,1-.16.06H2.44a2.46,2.46,0,0,1-2.4-2,2.42,2.42,0,0,1,0-.47Zm1.64,0v8.06a1,1,0,0,0,.07.41.81.81,0,0,0,.8.48h12c.12,0,.12,0,.12-.12V14.8c0-.14,0-.14.14-.14H19.5s.06,0,.06-.05a.27.27,0,0,1,0-.09v-12a.28.28,0,0,0,0-.09.8.8,0,0,0-.34-.69,1,1,0,0,0-.55-.14H2.48a1,1,0,0,0-.5.15.86.86,0,0,0-.34.74Zm14.67,7.75,2-2H16.41c-.08,0-.1,0-.1.11v1.94Z"/><line class="cls-2" x1="10.6" y1="6.9" x2="10.6" y2="14.3"/><line class="cls-2" x1="6.9" y1="10.6" x2="14.3" y2="10.6"/></svg>