<svg id="Camada_1" data-name="Camada 1" xmlns="http://www.w3.org/2000/svg" viewBox="0 0 7.35 7.53"><defs><style>.cls-1{fill:#ced7db;}.cls-2{fill:#61abeb;}.cls-3{fill:#afbdc4;}.cls-4{fill:#1d78bc;}</style></defs><title>Total Vita App Layout</title><path class="cls-1" d="M7.34,1.27s0,.06,0,.09V6.7a.79.79,0,0,1-.6.81l-.2,0H.8A.78.78,0,0,1,0,6.92a1,1,0,0,1,0-.17V2.51a.11.11,0,0,1,.08,0,.48.48,0,0,1,.12,0H7.14c.18,0,.17,0,.17-.16V1.39S7.3,1.3,7.34,1.27Z"/><path class="cls-2" d="M7.35,1.27V2.38c0,.13,0,.13-.13.13H0a1.69,1.69,0,0,1,0-.32c0-.27,0-.53,0-.8A.76.76,0,0,1,.81.58h.74a.22.22,0,0,1,0,.16.86.86,0,0,1,0,.16S1.52,1,1.49,1a.56.56,0,0,0,0,.61A.57.57,0,0,0,2,1.9a.56.56,0,0,0,.45-.41A.57.57,0,0,0,2.36,1a.18.18,0,0,1,0-.07,2.43,2.43,0,0,1,0-.27.08.08,0,0,1,0-.07H5s0,0,0,0a4.92,4.92,0,0,1,0,.77s0,0,0,0A.28.28,0,0,1,5,1.3,3,3,0,0,0,5,1a.41.41,0,0,0-.13.24.56.56,0,0,0,.23.57.54.54,0,0,0,.61,0A.55.55,0,0,0,5.83,1s0,0,0-.06a1.22,1.22,0,0,1,0-.27s0-.05,0-.07h.75A.77.77,0,0,1,7.35,1.27Z"/><path class="cls-3" d="M2.33.58V.94a.91.91,0,0,1-.05.63.39.39,0,0,1-.45.18.41.41,0,0,1-.3-.39V1a.15.15,0,0,1,0-.09V.42A.39.39,0,0,1,1.93,0a.4.4,0,0,1,.4.42Z"/><path class="cls-3" d="M5,1.41V.58A2.18,2.18,0,0,1,5,.33.39.39,0,0,1,5.44,0,.4.4,0,0,1,5.8.37V.94a.11.11,0,0,1,0,.08v.36a.41.41,0,0,1-.32.37A.4.4,0,0,1,5,1.51.09.09,0,0,1,5,1.41Z"/><path class="cls-4" d="M1.55.93v.42a.38.38,0,0,0,.35.39.37.37,0,0,0,.41-.34c0-.15,0-.31,0-.46a.58.58,0,0,1,0,.79.57.57,0,0,1-.57.19.55.55,0,0,1-.44-.46A.53.53,0,0,1,1.55.93Z"/><path class="cls-4" d="M5,1.41a.39.39,0,0,0,.76,0,1,1,0,0,0,0-.24V.94A.47.47,0,0,1,6,1.31a.56.56,0,0,1-.28.54.58.58,0,0,1-.63,0A.59.59,0,0,1,5,1L5,1C5,1.1,5,1.26,5,1.41Z"/></svg>