<svg id="Camada_1" data-name="Camada 1" xmlns="http://www.w3.org/2000/svg" viewBox="0 0 11.76 13.29"><defs><style>.cls-1{fill:#61abeb;}</style></defs><title>Total Vita App Layout</title><path class="cls-1" d="M6,13.29H1.3a1.23,1.23,0,0,1-.91-.37A1.18,1.18,0,0,1,0,12V5.35A.76.76,0,0,1,.71,4.6c.06,0,.06,0,.06-.07V2.38c0-.28,0-.56,0-.84A.74.74,0,0,1,1.23.83s.05,0,.05-.07A.76.76,0,0,1,2.05,0H9.71a.76.76,0,0,1,.77.76s0,.06,0,.07a.75.75,0,0,1,.47.72V7.87s0,0,0,0a.77.77,0,0,1,.72.77q0,1.79,0,3.57a1,1,0,0,1-.82,1l-.21,0Zm-.47-.52H9.79s.05,0,0,0a1.08,1.08,0,0,1-.11-.5V6.9a.26.26,0,0,0-.14-.22.32.32,0,0,0-.17,0H4.25a.8.8,0,0,1-.54-.35L3,5.25a.28.28,0,0,0-.24-.14h-2a.25.25,0,0,0-.27.28c0,2.2,0,4.41,0,6.61a.84.84,0,0,0,0,.27.77.77,0,0,0,.74.5ZM5,1.28H1.58a.27.27,0,0,0-.3.3V4.52c0,.08,0,.08.08.08H2.77A.76.76,0,0,1,3.45,5c.22.33.45.66.67,1a.34.34,0,0,0,.31.16H9.57a.77.77,0,0,1,.65.78V12.2a.76.76,0,0,0,0,.15.51.51,0,0,0,.33.39.49.49,0,0,0,.5-.1.59.59,0,0,0,.18-.45V8.68a.27.27,0,0,0-.16-.23c-.08,0-.09,0-.09.06v3.77a.26.26,0,0,1-.24.24.25.25,0,0,1-.27-.22.28.28,0,0,1,0-.09V3.67c0-.09,0-.09-.08-.09H9.11a.78.78,0,0,1-.68-.78V1.36c0-.08,0-.08-.08-.08Zm5.51,1V1.57a.26.26,0,0,0-.28-.29H9s-.07,0-.07.07c0,.47,0,.95,0,1.43a.27.27,0,0,0,.29.29h1.18c.05,0,.07,0,.06-.07ZM5.88.77h4c.11,0,.12,0,.07-.13l0,0A.32.32,0,0,0,9.66.51H2a.24.24,0,0,0-.23.16c0,.08,0,.09.06.09Z"/><path class="cls-1" d="M1,10.23l.06,0,1.8,1.8.15.16s0,0,0,0,0,0,0,0H1.55A.51.51,0,0,1,1,11.74V10.23Z"/><path class="cls-1" d="M4.86,2H7.33c.08,0,.08,0,.08.09v.36s0,.07-.06.07h-5c-.07,0-.07,0-.07-.07V2.11C2.3,2,2.3,2,2.37,2Z"/><path class="cls-1" d="M4.85,3.58H2.38c-.08,0-.08,0-.08-.08V3.13s0-.07.06-.07h5s0,0,0,0v.44s0,0,0,0H4.85Z"/><path class="cls-1" d="M5.88,4.6H4.42c-.08,0-.08,0-.08-.07V4.15c0-.05,0-.06.06-.06H7.35c.05,0,.06,0,.06.06v.39s0,.06-.06.06Z"/><path class="cls-1" d="M5.88,5.11H7.34c.07,0,.07,0,.07.07v.39s0,0-.06,0H4.4s-.06,0-.06,0v-.4s0-.06.07-.06Z"/></svg>