<svg id="Camada_1" data-name="Camada 1" xmlns="http://www.w3.org/2000/svg" viewBox="0 0 13 11.43"><title>Total Vita App Layout</title><path d="M6.27,0h.46a1.78,1.78,0,0,1,.43.23,2.12,2.12,0,0,1,.48.6l4.66,8a5.31,5.31,0,0,1,.7,1.36v.48a1.05,1.05,0,0,1-.89.75,2.12,2.12,0,0,1-.44,0H1.16A1.17,1.17,0,0,1,0,10.64v-.48a2.89,2.89,0,0,1,.26-.63L5.38.8A1.66,1.66,0,0,1,6.27,0Zm.22,10.33H11a.51.51,0,0,0,.47-.75c0-.08-.08-.16-.13-.24L7,2c-.3-.52-.76-.52-1.06,0C4.52,4.43,3.08,6.9,1.64,9.36a1.1,1.1,0,0,0-.16.37.44.44,0,0,0,.28.54.86.86,0,0,0,.35.06Z"/><path d="M5.65,4.62a2,2,0,0,1,0-.59A1,1,0,0,1,6,3.46.75.75,0,0,1,7,3.46a1,1,0,0,1,.34.78c0,.79,0,1.58,0,2.37A1.07,1.07,0,0,1,7,7.32a.66.66,0,0,1-1,0,1.2,1.2,0,0,1-.31-.75c0-.38,0-.77,0-1.16Z"/><path d="M6.5,8a.8.8,0,0,1,.81.79.81.81,0,1,1-1.62,0A.8.8,0,0,1,6.5,8Z"/></svg>