<svg id="Camada_1" data-name="Camada 1" xmlns="http://www.w3.org/2000/svg" viewBox="0 0 23.32 17.13"><defs><style>.cls-1{fill:#61abeb;}</style></defs><title>Total Vita App Layout</title><path class="cls-1" d="M0,7.29A26.76,26.76,0,0,1,1.13,3.7a21.52,21.52,0,0,1,2-3.1C3.48.16,4-.07,4.41.34s.17.86-.18,1.26C.87,5.52.54,10.5,3.37,14.48a8.49,8.49,0,0,1,.89,1.13,3.59,3.59,0,0,1,.16,1.2c-.4-.07-.94,0-1.17-.23A11.09,11.09,0,0,1,.17,10.43,4.36,4.36,0,0,0,0,9.84Z"/><path class="cls-1" d="M23.32,9.84a25.12,25.12,0,0,1-1.13,3.6,16.86,16.86,0,0,1-2.13,3.14c-.18.23-.76.16-1.16.23,0-.41-.06-.94.15-1.19a10.31,10.31,0,0,0,2.8-7A10,10,0,0,0,19.45,2c-.13-.16-.36-.3-.4-.48A8,8,0,0,1,18.9.33c.4.07.94,0,1.17.23A10.88,10.88,0,0,1,23,5.81c.11.5.23,1,.35,1.48Z"/><path class="cls-1" d="M20.23,8.58a8.57,8.57,0,0,1-17.14,0,8.57,8.57,0,0,1,17.14,0Zm-8.5-7.12a7.11,7.11,0,0,0-.19,14.21,7.05,7.05,0,0,0,7.23-7.06A7.07,7.07,0,0,0,11.73,1.46Z"/><path class="cls-1" d="M12.39,6.93c0,1,0,1.93,0,2.9,0,.51-.11.94-.7.95s-.76-.36-.76-.89V4c0-.52.15-.92.75-.91s.72.43.71.94C12.38,5,12.39,6,12.39,6.93Z"/><path class="cls-1" d="M11.4,13.44c-.22-.34-.58-.66-.61-1a.74.74,0,0,1,.93-.82,1.24,1.24,0,0,1,.79.88c0,.33-.45.67-.71,1Z"/></svg>