<svg id="Camada_1" data-name="Camada 1" xmlns="http://www.w3.org/2000/svg" viewBox="0 0 37.12 36.85"><defs><style>.cls-1{fill:#45c94e;}</style></defs><title>Total Vita App Layout</title><path class="cls-1" d="M20.53,36.85a18.21,18.21,0,0,1-2.65-.5,11.35,11.35,0,0,1-6.8-5,6.94,6.94,0,0,1-1-3.45q0-1.47,0-2.94c0-.36-.13-.48-.49-.53a12.37,12.37,0,0,1-4.91-1.68A9.21,9.21,0,0,1,.23,17.19,7.16,7.16,0,0,1,0,15.34V3.26A1.67,1.67,0,0,1,1.94,1.55c.2,0,.26-.1.36-.21A3.42,3.42,0,0,1,5.75.07a3.13,3.13,0,0,1,2.68,2.4,3.15,3.15,0,0,1-3,3.71A3.41,3.41,0,0,1,3.82,6c-.36-.15-.38,0-.38.26,0,2.61,0,5.22,0,7.84a8.89,8.89,0,0,0,.26,2.81,6.22,6.22,0,0,0,3,3.3,9.78,9.78,0,0,0,4.85,1.3,10,10,0,0,0,5.42-1.26,6,6,0,0,0,3.15-3.78,5.55,5.55,0,0,0,.12-1.22V6.29c0-.45,0-.44-.44-.29a3.46,3.46,0,0,1-3.54-.66,2.75,2.75,0,0,1-.87-3.23A3.12,3.12,0,0,1,18,.05a3.42,3.42,0,0,1,3.27,1.19.75.75,0,0,0,.65.3,1.6,1.6,0,0,1,1.71,1.54c0,4.28,0,8.56,0,12.84a7.13,7.13,0,0,1-2.24,4.91A12.12,12.12,0,0,1,14,24.44c-.38,0-.53.17-.51.55.06,1,0,2,.06,3.05a5,5,0,0,0,2,3.56A9.94,9.94,0,0,0,23,33.69a9.11,9.11,0,0,0,5.73-2.51,4.78,4.78,0,0,0,1.54-3.52c0-3,0-6.06,0-9.09a.49.49,0,0,0-.36-.52,4.56,4.56,0,0,1-3-3.85c-.28-2.56,1.89-4.66,4.34-5A5.15,5.15,0,0,1,37,12.79,4.53,4.53,0,0,1,34.19,18a.63.63,0,0,0-.46.68c0,2.86,0,5.73,0,8.59.07,3.32-1.61,5.75-4.48,7.59a12.53,12.53,0,0,1-5.79,1.93,1.16,1.16,0,0,0-.18,0ZM32,12.35a1.5,1.5,0,1,0,0,3,1.59,1.59,0,0,0,1.63-1.49A1.59,1.59,0,0,0,32,12.35Z"/></svg>