<svg id="Camada_1" data-name="Camada 1" xmlns="http://www.w3.org/2000/svg" viewBox="0 0 13.85 11.84"><defs><style>.cls-1{fill:#61abeb;}</style></defs><title>Total Vita App Layout</title><path class="cls-1" d="M6.93,0h5.12a1.76,1.76,0,0,1,1.41.55,1.47,1.47,0,0,1,.39,1c0,2.07,0,4.14,0,6.2a1.54,1.54,0,0,1-1.61,1.53H7.17c-.35,0-.53.07-.65.44a3.11,3.11,0,0,1-2,1.85,4.58,4.58,0,0,1-1,.27.35.35,0,0,1-.42-.15c-.09-.17.06-.25.15-.35a1.66,1.66,0,0,0,.36-1.69.47.47,0,0,0-.51-.37c-.51,0-1,0-1.53,0A1.54,1.54,0,0,1,0,7.63v-6A1.5,1.5,0,0,1,1.39,0a8.36,8.36,0,0,1,1,0Zm0,4.93c1.07,0,2.14,0,3.2,0,.23,0,.57.09.58-.27s-.35-.31-.58-.31H3.72a1.34,1.34,0,0,0-.35,0,.27.27,0,0,0-.23.27c0,.16.12.24.27.27a1.61,1.61,0,0,0,.31,0Zm0,1.53h3.32c.21,0,.46,0,.45-.29s-.25-.28-.46-.29H3.72a1.31,1.31,0,0,0-.28,0c-.16,0-.3.11-.29.29a.3.3,0,0,0,.3.28H6.9Zm0-3.61H3.69c-.22,0-.54-.07-.54.27s.32.28.55.28h6.55c.2,0,.42,0,.42-.29s-.22-.25-.4-.26H6.93Z"/></svg>