<svg id="Camada_1" data-name="Camada 1" xmlns="http://www.w3.org/2000/svg" viewBox="0 0 9.57 11.09"><defs><style>.cls-1{fill:#fff;}</style></defs><title>Total Vita App Layout</title><path class="cls-1" d="M0,9.63V2.91a.18.18,0,0,1,.11-.1L1,2.52c.06,0,.07,0,.07-.1V.17s0,0,.05,0h0L4.37,1.3a.44.44,0,0,0,.3,0c.67-.24,1.34-.46,2-.69L8.5,0h.07a.16.16,0,0,1,.09.17V2.65c0,.05,0,.07.07.09.25.07.5.16.75.24.1,0,.09,0,.09.11V9.64s0,0-.05,0h0L8.36,9.31,4.82,8.18H4.73l-2,.68L.18,9.69C.09,9.72.05,9.71,0,9.63ZM4.56,4.79V1.67c0-.06,0-.06-.06,0L.32,3c-.06,0-.07,0-.07.09V9.33c0,.07,0,.07.07.05L4.49,8a.09.09,0,0,0,.07-.1Zm4,2.82V7.56L8.22,6.25,7.49,3.63s0,0-.06-.07L7,3.44c-.15,0-.15,0-.2.1-.43,1-.85,2.06-1.27,3.1,0,.06,0,.06,0,.08l.51.15s.06,0,.08,0,.15-.37.23-.56,0-.07.1,0l1.19.36s.06,0,.08.08L8,7.4A.09.09,0,0,0,8,7.46l.19.06.34.1S8.59,7.64,8.59,7.61ZM4.88,1.5h0l0,0,2,.62,1.46.46c.05,0,.06,0,.06,0V.35s0,0-.06,0L8,.43l-2.91,1Z"/><path class="cls-1" d="M4.31,11.09,3.87,11A5,5,0,0,1,2,10.36a.18.18,0,0,1-.07,0,.12.12,0,0,1,.1-.21.52.52,0,0,1,.13.06A4.93,4.93,0,0,0,4,10.8a4,4,0,0,0,.78,0,4.48,4.48,0,0,0,1.53-.34A4.47,4.47,0,0,0,7,10.16s0,0,0-.08-.15-.23-.22-.35,0,0,0,0,0,0,0,0l.86.06h0c.06,0,.07,0,0,.06l-.12.35c-.07.19-.13.37-.19.55,0,0,0,0,0,0s0,0,0,0-.13-.21-.2-.32,0,0-.06,0c-.22.12-.44.24-.67.34a4.91,4.91,0,0,1-1.3.35l-.19,0Z"/><path class="cls-1" d="M3.54,4.15a.46.46,0,0,1,0,.2,10.39,10.39,0,0,1-.76,1.39s0,0,0,.06c.4.17.79.34,1.2.5A.14.14,0,0,1,4,6.38a1.05,1.05,0,0,1,.06.24s0,.07-.06.06l-.11,0A4,4,0,0,1,2.8,6l-.11-.08s0,0-.08,0a7.3,7.3,0,0,1-.52.72,10,10,0,0,1-.73.86l-.15.13A.41.41,0,0,1,1,7.7h0s0,0,0,0,.22-.24.33-.36c.31-.36.57-.75.85-1.12a8.56,8.56,0,0,0,.74-1.32,1.86,1.86,0,0,0,.1-.2,0,0,0,0,0,0,0s0,0,0,0l-.43.13c-.2.07-.4.12-.6.17s-.08,0-.08.11a.1.1,0,0,1,0,.07.56.56,0,0,1-.47.06.25.25,0,0,1-.2-.23s0-.06,0-.06a6.91,6.91,0,0,0,1-.27c.21-.07.41-.15.62-.21A.66.66,0,0,0,3,4.29a4.52,4.52,0,0,1,.5-.23c.08,0,.09,0,.09.06Z"/><path class="cls-1" d="M2.09,4.15a.46.46,0,0,1-.42-.4s0,0,0,0a.58.58,0,0,0,.37,0,4.92,4.92,0,0,1,.55-.14c.13,0,.21.05.19.19A.35.35,0,0,1,2.69,4,1,1,0,0,1,2.09,4.15Z"/><path class="cls-1" d="M7.53,5.84s0,0,0,0h0l-.74-.22c-.05,0-.06,0,0-.08l.43-1s0,0,0,0,0,0,0,0c.13.43.25.86.37,1.3Z"/></svg>